<?xml version="1.0" standalone="no"?><!DOCTYPE svg PUBLIC "-//W3C//DTD SVG 1.1//EN" "http://www.w3.org/Graphics/SVG/1.1/DTD/svg11.dtd"><svg t="1746431119222" class="icon" viewBox="0 0 1024 1024" version="1.1" xmlns="http://www.w3.org/2000/svg" p-id="6029" xmlns:xlink="http://www.w3.org/1999/xlink" width="200" height="200"><path d="M637.52 720.896l33.904 33.984-134.464 134.112a24 24 0 0 1-33.904 0l-241.6-240.928-60.368-60.24c-76.112-75.904-76.112-199.008 0-274.912 76.08-75.888 199.392-75.888 275.472 0l43.44 43.328 43.44-43.328c76.08-75.888 199.392-75.888 275.472 0 76.112 75.904 76.112 199.008 0 274.912l-60.384 60.224-33.904-33.984 60.4-60.224a146.048 146.048 0 0 0 0-206.944c-57.344-57.2-150.336-57.2-207.68 0l-60.4 60.224a24 24 0 0 1-33.888 0l-60.4-60.224c-57.344-57.2-150.336-57.2-207.68 0a146.048 146.048 0 0 0 0 206.944l60.384 60.24L520 838.112l117.52-117.216zM327.04 536.976l33.952-33.952 160 160-33.952 33.952-160-160z" fill="#3D424D" p-id="6030"></path></svg>