<?xml version="1.0" standalone="no"?><!DOCTYPE svg PUBLIC "-//W3C//DTD SVG 1.1//EN" "http://www.w3.org/Graphics/SVG/1.1/DTD/svg11.dtd"><svg t="1746431021240" class="icon" viewBox="0 0 1024 1024" version="1.1" xmlns="http://www.w3.org/2000/svg" p-id="5105" xmlns:xlink="http://www.w3.org/1999/xlink" width="200" height="200"><path d="M512 932.352c-227.84 0-413.696-185.344-413.696-413.696 0-141.312 71.168-271.36 190.464-348.16l31.744 49.664c-102.4 65.536-163.328 177.152-163.328 298.496 0 195.584 159.232 354.816 354.816 354.816 195.584 0 354.304-159.232 354.304-354.816 0-117.76-58.368-227.84-156.16-293.888l32.768-48.64c114.176 77.312 182.272 205.312 182.272 343.04 0.512 227.84-185.344 413.184-413.184 413.184z" fill="" p-id="5106"></path><path d="M301.568 197.632m-29.696 0a29.696 29.696 0 1 0 59.392 0 29.696 29.696 0 1 0-59.392 0Z" fill="" p-id="5107"></path><path d="M723.968 198.144m-29.696 0a29.696 29.696 0 1 0 59.392 0 29.696 29.696 0 1 0-59.392 0Z" fill="" p-id="5108"></path><path d="M453.12 156.16l174.08-20.48-99.84 286.72 163.84 5.12-309.76 363.52 107.52-268.8-140.8-2.56z" fill="" p-id="5109"></path></svg>