<?xml version="1.0" standalone="no"?><!DOCTYPE svg PUBLIC "-//W3C//DTD SVG 1.1//EN" "http://www.w3.org/Graphics/SVG/1.1/DTD/svg11.dtd"><svg t="1746431786954" class="icon" viewBox="0 0 1024 1024" version="1.1" xmlns="http://www.w3.org/2000/svg" p-id="4978" xmlns:xlink="http://www.w3.org/1999/xlink" width="200" height="200"><path d="M912 384h-64v-128c0-35.2-28.8-64-64-64H128c-35.2 0-64 28.8-64 64v512c0 35.2 28.8 64 64 64h656c35.2 0 64-28.8 64-64v-128h64c27.2 0 48-20.8 48-48V432c0-27.2-20.8-48-48-48z m-128 384H128V256h656v512z m112-192h-48v-128h48v128z" fill="#333333" p-id="4979"></path><path d="M688 512h-65.6l-68.8-118.4c-6.4-9.6-16-17.6-28.8-16-11.2 0-22.4 6.4-27.2 17.6l-86.4 174.4-52.8-104c-4.8-11.2-16-17.6-28.8-17.6H224c-17.6 0-32 14.4-32 32s14.4 32 32 32h84.8l73.6 142.4c4.8 11.2 16 17.6 28.8 17.6s22.4-6.4 28.8-17.6l88-176 48 83.2c6.4 9.6 16 16 27.2 16H688c17.6 0 32-14.4 32-32s-14.4-33.6-32-33.6z" fill="#333333" p-id="4980"></path></svg>