<svg version="1.1" xmlns="http://www.w3.org/2000/svg" xmlns:xlink="http://www.w3.org/1999/xlink" width="1344.330078125" height="788"><defs/><g><g><path fill="none" stroke="#000000" paint-order="fill stroke markers" d=" M 10 10 L 1322 10 L 1322 778 L 10 778 L 10 10" stroke-miterlimit="10" stroke-dasharray=""/></g><g><path fill="#ffffff" stroke="none" paint-order="stroke fill markers" d=" M 10 10 L 10 40 L 348.3828125 40 L 363.3828125 25 L 363.3828125 10 L 10 10"/></g><g><path fill="none" stroke="#000000" paint-order="fill stroke markers" d=" M 10 10 L 10 40 L 348.3828125 40 L 363.3828125 25 L 363.3828125 10 L 10 10 L 10 10" stroke-miterlimit="10" stroke-dasharray=""/></g><g><g><path fill="none" stroke="none"/><text fill="#000000" stroke="none" font-family="Arial" font-size="20px" font-style="normal" font-weight="normal" text-decoration="undefined" x="182.7529296875" y="15" text-anchor="middle" dominant-baseline="central" transform="matrix(1 0 0 1 10 10)">Port Signals Sequence Diagramm</text></g></g><g><g><path fill="none" stroke="none"/><text fill="#000000" stroke="none" font-family="Arial" font-size="20px" font-style="normal" font-weight="bold" text-decoration="undefined" x="15.5615234375" y="15" text-anchor="middle" dominant-baseline="central" transform="matrix(1 0 0 1 10 10)">sd</text></g></g><g><rect fill="#FFADAD" stroke="none" x="48" y="360" width="960" height="280" transform="matrix(1 0 0 1 10 10)"/></g><g><path fill="none" stroke="#000000" paint-order="fill stroke markers" d=" M 58 370 L 1018 370 L 1018 650 L 58 650 L 58 370 Z Z" stroke-miterlimit="10" stroke-dasharray=""/></g><g><rect fill="#ADC8FF" stroke="none" x="48" y="128" width="960" height="184" transform="matrix(1 0 0 1 10 10)"/></g><g><path fill="none" stroke="#000000" paint-order="fill stroke markers" d=" M 58 138 L 1018 138 L 1018 322 L 58 322 L 58 138 Z Z" stroke-miterlimit="10" stroke-dasharray=""/></g><g><rect fill="#C0C0C0" stroke="none" x="55" y="47" width="110.2763671875" height="40" transform="matrix(1 0 0 1 10 10)" fill-opacity="0.2"/></g><g><rect fill="#38BCFF" stroke="none" x="48" y="40" width="110.2763671875" height="40" transform="matrix(1 0 0 1 10 10)"/></g><g><path fill="none" stroke="#000000" paint-order="fill stroke markers" d=" M 58 50 L 168.2763671875 50 L 168.2763671875 90 L 58 90 L 58 50 Z Z" stroke-miterlimit="10" stroke-dasharray=""/></g><g><g><path fill="none" stroke="none"/><text fill="#000000" stroke="none" font-family="Arial" font-size="13px" font-style="normal" font-weight="bold" text-decoration="undefined" x="103.63818359375" y="53.5" text-anchor="middle" dominant-baseline="central" transform="matrix(1 0 0 1 10 10)">Optimizer</text></g></g><g><path fill="none" stroke="#000000" paint-order="fill stroke markers" d=" M 113.5 91 L 113.5 746" stroke-miterlimit="10" stroke-dasharray="3"/></g><g><rect fill="#C0C0C0" stroke="none" x="295" y="47" width="203.701171875" height="40" transform="matrix(1 0 0 1 10 10)" fill-opacity="0.2"/></g><g><rect fill="#38BCFF" stroke="none" x="288" y="40" width="203.701171875" height="40" transform="matrix(1 0 0 1 10 10)"/></g><g><path fill="none" stroke="#000000" paint-order="fill stroke markers" d=" M 298 50 L 501.701171875 50 L 501.701171875 90 L 298 90 L 298 50 Z Z" stroke-miterlimit="10" stroke-dasharray=""/></g><g><g><path fill="none" stroke="none"/><text fill="#000000" stroke="none" font-family="Arial" font-size="13px" font-style="normal" font-weight="normal" text-decoration="undefined" x="390.3505859375" y="51.5" text-anchor="middle" dominant-baseline="central" transform="matrix(1 0 0 1 10 10)">«PortOCPPWebsocketServer»</text></g></g><g><g><path fill="none" stroke="none"/><text fill="#000000" stroke="none" font-family="Arial" font-size="13px" font-style="normal" font-weight="bold" text-decoration="undefined" x="390.3505859375" y="66.5" text-anchor="middle" dominant-baseline="central" transform="matrix(1 0 0 1 10 10)">Port in Optimizer</text></g></g><g><path fill="none" stroke="#000000" paint-order="fill stroke markers" d=" M 400.5 91 L 400.5 746" stroke-miterlimit="10" stroke-dasharray="3"/></g><g><rect fill="#C0C0C0" stroke="none" x="583" y="47" width="200.0576171875" height="40" transform="matrix(1 0 0 1 10 10)" fill-opacity="0.2"/></g><g><rect fill="#FFA182" stroke="none" x="576" y="40" width="200.0576171875" height="40" transform="matrix(1 0 0 1 10 10)"/></g><g><path fill="none" stroke="#000000" paint-order="fill stroke markers" d=" M 586 50 L 786.0576171875 50 L 786.0576171875 90 L 586 90 L 586 50 Z Z" stroke-miterlimit="10" stroke-dasharray=""/></g><g><g><path fill="none" stroke="none"/><text fill="#000000" stroke="none" font-family="Arial" font-size="13px" font-style="normal" font-weight="normal" text-decoration="undefined" x="676.52880859375" y="51.5" text-anchor="middle" dominant-baseline="central" transform="matrix(1 0 0 1 10 10)">«PortOCPPWebsocketClient»</text></g></g><g><g><path fill="none" stroke="none"/><text fill="#000000" stroke="none" font-family="Arial" font-size="13px" font-style="normal" font-weight="bold" text-decoration="undefined" x="676.52880859375" y="66.5" text-anchor="middle" dominant-baseline="central" transform="matrix(1 0 0 1 10 10)">Port in Raspberry Pi</text></g></g><g><path fill="none" stroke="#000000" paint-order="fill stroke markers" d=" M 686.5 91 L 686.5 746" stroke-miterlimit="10" stroke-dasharray="3"/></g><g><rect fill="#C0C0C0" stroke="none" x="895" y="47" width="150.025390625" height="40" transform="matrix(1 0 0 1 10 10)" fill-opacity="0.2"/></g><g><rect fill="#FFA182" stroke="none" x="888" y="40" width="150.025390625" height="40" transform="matrix(1 0 0 1 10 10)"/></g><g><path fill="none" stroke="#000000" paint-order="fill stroke markers" d=" M 898 50 L 1048.025390625 50 L 1048.025390625 90 L 898 90 L 898 50 Z Z" stroke-miterlimit="10" stroke-dasharray=""/></g><g><g><path fill="none" stroke="none"/><text fill="#000000" stroke="none" font-family="Arial" font-size="13px" font-style="normal" font-weight="normal" text-decoration="undefined" x="963.5126953125" y="51.5" text-anchor="middle" dominant-baseline="central" transform="matrix(1 0 0 1 10 10)">«Client»</text></g></g><g><g><path fill="none" stroke="none"/><text fill="#000000" stroke="none" font-family="Arial" font-size="13px" font-style="normal" font-weight="bold" text-decoration="undefined" x="963.5126953125" y="66.5" text-anchor="middle" dominant-baseline="central" transform="matrix(1 0 0 1 10 10)">Client System</text></g></g><g><path fill="none" stroke="#000000" paint-order="fill stroke markers" d=" M 973.5 91 L 973.5 746" stroke-miterlimit="10" stroke-dasharray="3"/></g><g><g><path fill="none" stroke="none"/><text fill="#000000" stroke="none" font-family="Arial" font-size="20px" font-style="normal" font-weight="normal" text-decoration="undefined" x="1021" y="181" text-anchor="start" dominant-baseline="text-before-edge" transform="matrix(1 0 0 1 10 10)">Request from the Opt-System</text></g></g><g><g><path fill="none" stroke="none"/><text fill="#000000" stroke="none" font-family="Arial" font-size="20px" font-style="normal" font-weight="normal" text-decoration="undefined" x="1021" y="203" text-anchor="start" dominant-baseline="text-before-edge" transform="matrix(1 0 0 1 10 10)"> </text></g></g><g><g><path fill="none" stroke="none"/><text fill="#000000" stroke="none" font-family="Arial" font-size="20px" font-style="normal" font-weight="normal" text-decoration="undefined" x="1021" y="225" text-anchor="start" dominant-baseline="text-before-edge" transform="matrix(1 0 0 1 10 10)">Response from the Client</text></g></g><g><g><path fill="none" stroke="none"/><text fill="#000000" stroke="none" font-family="Arial" font-size="20px" font-style="normal" font-weight="normal" text-decoration="undefined" x="1021" y="453" text-anchor="start" dominant-baseline="text-before-edge" transform="matrix(1 0 0 1 10 10)">Request from the Client</text></g></g><g><g><path fill="none" stroke="none"/><text fill="#000000" stroke="none" font-family="Arial" font-size="20px" font-style="normal" font-weight="normal" text-decoration="undefined" x="1021" y="475" text-anchor="start" dominant-baseline="text-before-edge" transform="matrix(1 0 0 1 10 10)"> </text></g></g><g><g><path fill="none" stroke="none"/><text fill="#000000" stroke="none" font-family="Arial" font-size="20px" font-style="normal" font-weight="normal" text-decoration="undefined" x="1021" y="497" text-anchor="start" dominant-baseline="text-before-edge" transform="matrix(1 0 0 1 10 10)">Response from the Opt-System</text></g></g><g><path fill="none" stroke="#000000" paint-order="fill stroke markers" d=" M 114 178 L 393 178" stroke-miterlimit="10" stroke-dasharray=""/></g><g><path fill="#000000" stroke="none" paint-order="stroke fill markers" d=" M 382.83732514237585 182.209517756016 L 393 178 L 382.83732514237585 173.790482243984"/></g><g><path fill="none" stroke="#000000" paint-order="fill stroke markers" d=" M 382.83732514237585 182.209517756016 L 393 178 L 382.83732514237585 173.790482243984 L 382.83732514237585 182.209517756016" stroke-miterlimit="10" stroke-dasharray=""/></g><g><rect fill="#ADC8FF" stroke="none" x="194" y="152" width="98.7314453125" height="13" transform="matrix(1 0 0 1 10 10)"/></g><g><g><path fill="none" stroke="none"/><text fill="#000000" stroke="none" font-family="Arial" font-size="13px" font-style="normal" font-weight="normal" text-decoration="undefined" x="243.36572265625" y="158.5" text-anchor="middle" dominant-baseline="central" transform="matrix(1 0 0 1 10 10)">1 : send request</text></g></g><g><rect fill="#ADC8FF" stroke="none" x="223" y="137" width="41.49462890625" height="13" transform="matrix(1 0 0 1 10 10)"/></g><g><g><path fill="none" stroke="none"/><text fill="#000000" stroke="none" font-family="Arial" font-size="13px" font-style="normal" font-weight="normal" text-decoration="undefined" x="243.747314453125" y="143.5" text-anchor="middle" dominant-baseline="central" transform="matrix(1 0 0 1 10 10)">«func»</text></g></g><g><rect fill="#6DCEFF" stroke="none" x="383" y="168" width="14" height="28" transform="matrix(1 0 0 1 10 10)"/></g><g><path fill="none" stroke="#000000" paint-order="fill stroke markers" d=" M 393 178 L 407 178 L 407 206 L 393 206 L 393 178 Z Z" stroke-miterlimit="10" stroke-dasharray=""/></g><g><path fill="none" stroke="#000000" paint-order="fill stroke markers" d=" M 407 194 L 679 194" stroke-miterlimit="10" stroke-dasharray=""/></g><g><path fill="none" stroke="#000000" paint-order="fill stroke markers" d=" M 668.8373251423759 198.209517756016 L 679 194 L 668.8373251423758 189.790482243984" stroke-miterlimit="10" stroke-dasharray=""/></g><g><rect fill="#ADC8FF" stroke="none" x="494" y="168" width="78.04443359375" height="13" transform="matrix(1 0 0 1 10 10)"/></g><g><g><path fill="none" stroke="none"/><text fill="#000000" stroke="none" font-family="Arial" font-size="13px" font-style="normal" font-weight="normal" text-decoration="undefined" x="533.022216796875" y="174.5" text-anchor="middle" dominant-baseline="central" transform="matrix(1 0 0 1 10 10)">2 : Request</text></g></g><g><rect fill="#ADC8FF" stroke="none" x="481" y="153" width="105.73291015625" height="13" transform="matrix(1 0 0 1 10 10)"/></g><g><g><path fill="none" stroke="none"/><text fill="#000000" stroke="none" font-family="Arial" font-size="13px" font-style="normal" font-weight="normal" text-decoration="undefined" x="533.866455078125" y="159.5" text-anchor="middle" dominant-baseline="central" transform="matrix(1 0 0 1 10 10)">«OCPP Protocol»</text></g></g><g><rect fill="#FFA182" stroke="none" x="669" y="184" width="14" height="28" transform="matrix(1 0 0 1 10 10)"/></g><g><path fill="none" stroke="#000000" paint-order="fill stroke markers" d=" M 679 194 L 693 194 L 693 222 L 679 222 L 679 194 Z Z" stroke-miterlimit="10" stroke-dasharray=""/></g><g><path fill="none" stroke="#000000" paint-order="fill stroke markers" d=" M 693 210 L 966 210" stroke-miterlimit="10" stroke-dasharray=""/></g><g><path fill="#000000" stroke="none" paint-order="stroke fill markers" d=" M 955.8373251423759 214.209517756016 L 966 210 L 955.8373251423758 205.790482243984"/></g><g><path fill="none" stroke="#000000" paint-order="fill stroke markers" d=" M 955.8373251423759 214.209517756016 L 966 210 L 955.8373251423758 205.790482243984 L 955.8373251423759 214.209517756016" stroke-miterlimit="10" stroke-dasharray=""/></g><g><rect fill="#ADC8FF" stroke="none" x="757" y="184" width="124.00146484375" height="13" transform="matrix(1 0 0 1 10 10)"/></g><g><g><path fill="none" stroke="none"/><text fill="#000000" stroke="none" font-family="Arial" font-size="13px" font-style="normal" font-weight="normal" text-decoration="undefined" x="819.000732421875" y="190.5" text-anchor="middle" dominant-baseline="central" transform="matrix(1 0 0 1 10 10)">3 : request from opt</text></g></g><g><rect fill="#ADC8FF" stroke="none" x="794" y="169" width="50.8955078125" height="13" transform="matrix(1 0 0 1 10 10)"/></g><g><g><path fill="none" stroke="none"/><text fill="#000000" stroke="none" font-family="Arial" font-size="13px" font-style="normal" font-weight="normal" text-decoration="undefined" x="819.44775390625" y="175.5" text-anchor="middle" dominant-baseline="central" transform="matrix(1 0 0 1 10 10)">«signal»</text></g></g><g><rect fill="#FFA182" stroke="none" x="956" y="200" width="14" height="28" transform="matrix(1 0 0 1 10 10)"/></g><g><path fill="none" stroke="#000000" paint-order="fill stroke markers" d=" M 966 210 L 980 210 L 980 238 L 966 238 L 966 210 Z Z" stroke-miterlimit="10" stroke-dasharray=""/></g><g><path fill="none" stroke="#000000" paint-order="fill stroke markers" d=" M 973 242 L 687 242" stroke-miterlimit="10" stroke-dasharray="3"/></g><g><path fill="none" stroke="#000000" paint-order="fill stroke markers" d=" M 697.1626748576241 237.790482243984 L 687 242 L 697.1626748576241 246.209517756016" stroke-miterlimit="10" stroke-dasharray=""/></g><g><rect fill="#ADC8FF" stroke="none" x="765" y="236" width="108.15771484375" height="13" transform="matrix(1 0 0 1 10 10)"/></g><g><g><path fill="none" stroke="none"/><text fill="#000000" stroke="none" font-family="Arial" font-size="13px" font-style="normal" font-weight="normal" text-decoration="undefined" x="819.078857421875" y="242.5" text-anchor="middle" dominant-baseline="central" transform="matrix(1 0 0 1 10 10)">4 : send response</text></g></g><g><rect fill="#ADC8FF" stroke="none" x="799" y="251" width="41.49462890625" height="13" transform="matrix(1 0 0 1 10 10)"/></g><g><g><path fill="none" stroke="none"/><text fill="#000000" stroke="none" font-family="Arial" font-size="13px" font-style="normal" font-weight="normal" text-decoration="undefined" x="819.747314453125" y="257.5" text-anchor="middle" dominant-baseline="central" transform="matrix(1 0 0 1 10 10)">«func»</text></g></g><g><path fill="none" stroke="#000000" paint-order="fill stroke markers" d=" M 686 258 L 401 258" stroke-miterlimit="10" stroke-dasharray="3"/></g><g><path fill="none" stroke="#000000" paint-order="fill stroke markers" d=" M 411.16267485762415 253.790482243984 L 401 258 L 411.16267485762415 262.209517756016" stroke-miterlimit="10" stroke-dasharray=""/></g><g><rect fill="#ADC8FF" stroke="none" x="494" y="252" width="77.90478515625" height="13" transform="matrix(1 0 0 1 10 10)"/></g><g><g><path fill="none" stroke="none"/><text fill="#000000" stroke="none" font-family="Arial" font-size="13px" font-style="normal" font-weight="normal" text-decoration="undefined" x="532.952392578125" y="258.5" text-anchor="middle" dominant-baseline="central" transform="matrix(1 0 0 1 10 10)">5 : Response</text></g></g><g><rect fill="#ADC8FF" stroke="none" x="480" y="267" width="105.73291015625" height="13" transform="matrix(1 0 0 1 10 10)"/></g><g><g><path fill="none" stroke="none"/><text fill="#000000" stroke="none" font-family="Arial" font-size="13px" font-style="normal" font-weight="normal" text-decoration="undefined" x="532.866455078125" y="273.5" text-anchor="middle" dominant-baseline="central" transform="matrix(1 0 0 1 10 10)">«OCPP Protocol»</text></g></g><g><path fill="none" stroke="#000000" paint-order="fill stroke markers" d=" M 400 274 L 114 274" stroke-miterlimit="10" stroke-dasharray="3"/></g><g><path fill="none" stroke="#000000" paint-order="fill stroke markers" d=" M 124.16267485762415 269.790482243984 L 114 274 L 124.16267485762415 278.209517756016" stroke-miterlimit="10" stroke-dasharray=""/></g><g><rect fill="#ADC8FF" stroke="none" x="174" y="268" width="145.68505859375" height="13" transform="matrix(1 0 0 1 10 10)"/></g><g><g><path fill="none" stroke="none"/><text fill="#000000" stroke="none" font-family="Arial" font-size="13px" font-style="normal" font-weight="normal" text-decoration="undefined" x="246.842529296875" y="274.5" text-anchor="middle" dominant-baseline="central" transform="matrix(1 0 0 1 10 10)">6 : response from client</text></g></g><g><rect fill="#ADC8FF" stroke="none" x="221" y="283" width="50.8955078125" height="13" transform="matrix(1 0 0 1 10 10)"/></g><g><g><path fill="none" stroke="none"/><text fill="#000000" stroke="none" font-family="Arial" font-size="13px" font-style="normal" font-weight="normal" text-decoration="undefined" x="246.44775390625" y="289.5" text-anchor="middle" dominant-baseline="central" transform="matrix(1 0 0 1 10 10)">«signal»</text></g></g><g><path fill="none" stroke="#000000" paint-order="fill stroke markers" d=" M 973 426 L 693 426" stroke-miterlimit="10" stroke-dasharray=""/></g><g><path fill="#000000" stroke="none" paint-order="stroke fill markers" d=" M 703.1626748576241 421.790482243984 L 693 426 L 703.1626748576241 430.209517756016"/></g><g><path fill="none" stroke="#000000" paint-order="fill stroke markers" d=" M 703.1626748576241 421.790482243984 L 693 426 L 703.1626748576241 430.209517756016 L 703.1626748576241 421.790482243984" stroke-miterlimit="10" stroke-dasharray=""/></g><g><rect fill="#FFADAD" stroke="none" x="773" y="399" width="98.7314453125" height="13" transform="matrix(1 0 0 1 10 10)"/></g><g><g><path fill="none" stroke="none"/><text fill="#000000" stroke="none" font-family="Arial" font-size="13px" font-style="normal" font-weight="normal" text-decoration="undefined" x="822.36572265625" y="405.5" text-anchor="middle" dominant-baseline="central" transform="matrix(1 0 0 1 10 10)">7 : send request</text></g></g><g><rect fill="#FFADAD" stroke="none" x="802" y="383" width="41.49462890625" height="13" transform="matrix(1 0 0 1 10 10)"/></g><g><g><path fill="none" stroke="none"/><text fill="#000000" stroke="none" font-family="Arial" font-size="13px" font-style="normal" font-weight="normal" text-decoration="undefined" x="822.747314453125" y="389.5" text-anchor="middle" dominant-baseline="central" transform="matrix(1 0 0 1 10 10)">«func»</text></g></g><g><rect fill="#FFA182" stroke="none" x="669" y="416" width="14" height="28" transform="matrix(1 0 0 1 10 10)"/></g><g><path fill="none" stroke="#000000" paint-order="fill stroke markers" d=" M 679 426 L 693 426 L 693 454 L 679 454 L 679 426 Z Z" stroke-miterlimit="10" stroke-dasharray=""/></g><g><path fill="none" stroke="#000000" paint-order="fill stroke markers" d=" M 679 442 L 407 442" stroke-miterlimit="10" stroke-dasharray=""/></g><g><path fill="none" stroke="#000000" paint-order="fill stroke markers" d=" M 417.16267485762415 437.790482243984 L 407 442 L 417.16267485762415 446.209517756016" stroke-miterlimit="10" stroke-dasharray=""/></g><g><rect fill="#FFADAD" stroke="none" x="496" y="416" width="78.04443359375" height="13" transform="matrix(1 0 0 1 10 10)"/></g><g><g><path fill="none" stroke="none"/><text fill="#000000" stroke="none" font-family="Arial" font-size="13px" font-style="normal" font-weight="normal" text-decoration="undefined" x="535.022216796875" y="422.5" text-anchor="middle" dominant-baseline="central" transform="matrix(1 0 0 1 10 10)">8 : Request</text></g></g><g><rect fill="#FFADAD" stroke="none" x="480" y="399" width="105.73291015625" height="13" transform="matrix(1 0 0 1 10 10)"/></g><g><g><path fill="none" stroke="none"/><text fill="#000000" stroke="none" font-family="Arial" font-size="13px" font-style="normal" font-weight="normal" text-decoration="undefined" x="532.866455078125" y="405.5" text-anchor="middle" dominant-baseline="central" transform="matrix(1 0 0 1 10 10)">«OCPP Protocol»</text></g></g><g><rect fill="#6DCEFF" stroke="none" x="383" y="432" width="14" height="28" transform="matrix(1 0 0 1 10 10)"/></g><g><path fill="none" stroke="#000000" paint-order="fill stroke markers" d=" M 393 442 L 407 442 L 407 470 L 393 470 L 393 442 Z Z" stroke-miterlimit="10" stroke-dasharray=""/></g><g><path fill="none" stroke="#000000" paint-order="fill stroke markers" d=" M 393 458 L 120 458" stroke-miterlimit="10" stroke-dasharray=""/></g><g><path fill="#000000" stroke="none" paint-order="stroke fill markers" d=" M 130.16267485762415 453.790482243984 L 120 458 L 130.16267485762415 462.209517756016"/></g><g><path fill="none" stroke="#000000" paint-order="fill stroke markers" d=" M 130.16267485762415 453.790482243984 L 120 458 L 130.16267485762415 462.209517756016 L 130.16267485762415 453.790482243984" stroke-miterlimit="10" stroke-dasharray=""/></g><g><rect fill="#FFADAD" stroke="none" x="159" y="429" width="172.5927734375" height="13" transform="matrix(1 0 0 1 10 10)"/></g><g><g><path fill="none" stroke="none"/><text fill="#000000" stroke="none" font-family="Arial" font-size="13px" font-style="normal" font-weight="normal" text-decoration="undefined" x="245.29638671875" y="435.5" text-anchor="middle" dominant-baseline="central" transform="matrix(1 0 0 1 10 10)">9 : request from Rasberry Pi</text></g></g><g><rect fill="#FFADAD" stroke="none" x="218" y="413" width="50.8955078125" height="13" transform="matrix(1 0 0 1 10 10)"/></g><g><g><path fill="none" stroke="none"/><text fill="#000000" stroke="none" font-family="Arial" font-size="13px" font-style="normal" font-weight="normal" text-decoration="undefined" x="243.44775390625" y="419.5" text-anchor="middle" dominant-baseline="central" transform="matrix(1 0 0 1 10 10)">«signal»</text></g></g><g><rect fill="#38BCFF" stroke="none" x="96" y="448" width="14" height="28" transform="matrix(1 0 0 1 10 10)"/></g><g><path fill="none" stroke="#000000" paint-order="fill stroke markers" d=" M 106 458 L 120 458 L 120 486 L 106 486 L 106 458 Z Z" stroke-miterlimit="10" stroke-dasharray=""/></g><g><path fill="none" stroke="#000000" paint-order="fill stroke markers" d=" M 114 490 L 400 490" stroke-miterlimit="10" stroke-dasharray="3"/></g><g><path fill="none" stroke="#000000" paint-order="fill stroke markers" d=" M 389.83732514237585 494.209517756016 L 400 490 L 389.83732514237585 485.790482243984" stroke-miterlimit="10" stroke-dasharray=""/></g><g><rect fill="#FFADAD" stroke="none" x="194" y="487" width="115.78125" height="13" transform="matrix(1 0 0 1 10 10)"/></g><g><g><path fill="none" stroke="none"/><text fill="#000000" stroke="none" font-family="Arial" font-size="13px" font-style="normal" font-weight="normal" text-decoration="undefined" x="251.890625" y="493.5" text-anchor="middle" dominant-baseline="central" transform="matrix(1 0 0 1 10 10)">10 : send response</text></g></g><g><rect fill="#FFADAD" stroke="none" x="227" y="503" width="41.49462890625" height="13" transform="matrix(1 0 0 1 10 10)"/></g><g><g><path fill="none" stroke="none"/><text fill="#000000" stroke="none" font-family="Arial" font-size="13px" font-style="normal" font-weight="normal" text-decoration="undefined" x="247.747314453125" y="509.5" text-anchor="middle" dominant-baseline="central" transform="matrix(1 0 0 1 10 10)">«func»</text></g></g><g><path fill="none" stroke="#000000" paint-order="fill stroke markers" d=" M 401 506 L 686 506" stroke-miterlimit="10" stroke-dasharray="3"/></g><g><path fill="none" stroke="#000000" paint-order="fill stroke markers" d=" M 675.8373251423759 510.209517756016 L 686 506 L 675.8373251423758 501.790482243984" stroke-miterlimit="10" stroke-dasharray=""/></g><g><rect fill="#FFADAD" stroke="none" x="490" y="504" width="85.5283203125" height="13" transform="matrix(1 0 0 1 10 10)"/></g><g><g><path fill="none" stroke="none"/><text fill="#000000" stroke="none" font-family="Arial" font-size="13px" font-style="normal" font-weight="normal" text-decoration="undefined" x="532.76416015625" y="510.5" text-anchor="middle" dominant-baseline="central" transform="matrix(1 0 0 1 10 10)">11 : Response</text></g></g><g><rect fill="#FFADAD" stroke="none" x="481" y="519" width="105.73291015625" height="13" transform="matrix(1 0 0 1 10 10)"/></g><g><g><path fill="none" stroke="none"/><text fill="#000000" stroke="none" font-family="Arial" font-size="13px" font-style="normal" font-weight="normal" text-decoration="undefined" x="533.866455078125" y="525.5" text-anchor="middle" dominant-baseline="central" transform="matrix(1 0 0 1 10 10)">«OCPP Protocol»</text></g></g><g><path fill="none" stroke="#000000" paint-order="fill stroke markers" d=" M 400 570 L 120 570" stroke-miterlimit="10" stroke-dasharray=""/></g><g><path fill="#000000" stroke="none" paint-order="stroke fill markers" d=" M 130.16267485762415 565.790482243984 L 120 570 L 130.16267485762415 574.209517756016"/></g><g><path fill="none" stroke="#000000" paint-order="fill stroke markers" d=" M 130.16267485762415 565.790482243984 L 120 570 L 130.16267485762415 574.209517756016 L 130.16267485762415 565.790482243984" stroke-miterlimit="10" stroke-dasharray=""/></g><g><rect fill="#FFADAD" stroke="none" x="151" y="564" width="193.578125" height="13" transform="matrix(1 0 0 1 10 10)"/></g><g><g><path fill="none" stroke="none"/><text fill="#000000" stroke="none" font-family="Arial" font-size="13px" font-style="normal" font-weight="normal" text-decoration="undefined" x="247.7890625" y="570.5" text-anchor="middle" dominant-baseline="central" transform="matrix(1 0 0 1 10 10)">12 : Result of sending response</text></g></g><g><rect fill="#FFADAD" stroke="none" x="224" y="579" width="50.8955078125" height="13" transform="matrix(1 0 0 1 10 10)"/></g><g><g><path fill="none" stroke="none"/><text fill="#000000" stroke="none" font-family="Arial" font-size="13px" font-style="normal" font-weight="normal" text-decoration="undefined" x="249.44775390625" y="585.5" text-anchor="middle" dominant-baseline="central" transform="matrix(1 0 0 1 10 10)">«signal»</text></g></g><g><rect fill="#38BCFF" stroke="none" x="96" y="560" width="14" height="28" transform="matrix(1 0 0 1 10 10)"/></g><g><path fill="none" stroke="#000000" paint-order="fill stroke markers" d=" M 106 570 L 120 570 L 120 598 L 106 598 L 106 570 Z Z" stroke-miterlimit="10" stroke-dasharray=""/></g><g><path fill="none" stroke="#000000" paint-order="fill stroke markers" d=" M 687 594 L 973 594" stroke-miterlimit="10" stroke-dasharray="3"/></g><g><path fill="none" stroke="#000000" paint-order="fill stroke markers" d=" M 962.8373251423759 598.209517756016 L 973 594 L 962.8373251423758 589.790482243984" stroke-miterlimit="10" stroke-dasharray=""/></g><g><rect fill="#FFADAD" stroke="none" x="755" y="591" width="141.05126953125" height="13" transform="matrix(1 0 0 1 10 10)"/></g><g><g><path fill="none" stroke="none"/><text fill="#000000" stroke="none" font-family="Arial" font-size="13px" font-style="normal" font-weight="normal" text-decoration="undefined" x="825.525634765625" y="597.5" text-anchor="middle" dominant-baseline="central" transform="matrix(1 0 0 1 10 10)">13 : response from opt</text></g></g><g><rect fill="#FFADAD" stroke="none" x="795" y="607" width="50.8955078125" height="13" transform="matrix(1 0 0 1 10 10)"/></g><g><g><path fill="none" stroke="none"/><text fill="#000000" stroke="none" font-family="Arial" font-size="13px" font-style="normal" font-weight="normal" text-decoration="undefined" x="820.44775390625" y="613.5" text-anchor="middle" dominant-baseline="central" transform="matrix(1 0 0 1 10 10)">«signal»</text></g></g></g></svg>